<svg xmlns="http://www.w3.org/2000/svg" version="1.1" xmlns:xlink="http://www.w3.org/1999/xlink" xmlns:svgjs="http://svgjs.dev/svgjs" width="2000" height="1500" viewBox="0 0 2000 1500"><rect width="2000" height="1500" fill="#000000"></rect><g transform="matrix(0.75,0,0,0.75,249.090909090909,282.7536437246963)"><svg viewBox="0 0 396 247" data-background-color="#000000" preserveAspectRatio="xMidYMid meet" height="1247" width="2000" xmlns="http://www.w3.org/2000/svg" xmlns:xlink="http://www.w3.org/1999/xlink"><g id="tight-bounds" transform="matrix(1,0,0,1,0.2400000000000091,-0.09999999999999432)"><svg viewBox="0 0 395.52 247.2" height="247.2" width="395.52"><rect width="395.52" height="247.2" fill="url(#a714d2c2-14bc-4c12-a48f-4ef460461ecc)" mask="url(#c642f96b-13b9-4473-9882-598643feb1df)" data-fill-palette-color="tertiary"></rect><g><svg></svg></g><g><svg viewBox="0 0 395.52 247.2" height="247.2" width="395.52"><g transform="matrix(1,0,0,1,75.54432,79.98973790957706)"><svg viewBox="0 0 244.43135999999998 87.22052418084589" height="87.22052418084589" width="244.43135999999998"><g><svg viewBox="0 0 244.43135999999998 87.22052418084589" height="87.22052418084589" width="244.43135999999998"><g><svg viewBox="0 0 244.43136 87.2205241808459" height="87.22052418084589" width="244.43135999999998"><g><svg viewBox="0 0 244.43136 87.2205241808459" height="87.2205241808459" width="244.43136"><g id="textblocktransform"><svg viewBox="0 0 244.43136 87.2205241808459" height="87.2205241808459" width="244.43136" id="textblock"><g><svg viewBox="0 0 244.43136 87.2205241808459" height="87.2205241808459" width="244.43136"><g transform="matrix(1,0,0,1,0,0)"><svg width="244.43136" viewBox="3.7 -35.8 102.85 36.699999999999996" height="87.2205241808459" data-palette-color="url(#0a162d44-a86d-471b-8482-b6baab2a381e)"></svg></g></svg></g></svg></g></svg></g></svg></g></svg></g></svg></g><path d="M177.752 73.99L177.752 20.177 384.598 20.177 384.598 227.023 177.752 227.023 177.752 173.21 185.617 173.21 185.617 219.158 376.733 219.158 376.733 28.042 185.617 28.042 185.617 73.99Z" fill="url(#a714d2c2-14bc-4c12-a48f-4ef460461ecc)" stroke="transparent" data-fill-palette-color="tertiary"></path></svg></g><defs></defs><mask id="e406f9a6-1cd2-4476-8c31-9cfa001fe386"><g id="SvgjsG7580"><svg viewBox="0 0 395.52 247.2" height="247.2" width="395.52"><g><svg></svg></g><g><svg viewBox="0 0 395.52 247.2" height="247.2" width="395.52"><g transform="matrix(1,0,0,1,75.54432,79.98973790957706)"><svg viewBox="0 0 244.43135999999998 87.22052418084589" height="87.22052418084589" width="244.43135999999998"><g><svg viewBox="0 0 244.43135999999998 87.22052418084589" height="87.22052418084589" width="244.43135999999998"><g><svg viewBox="0 0 244.43136 87.2205241808459" height="87.22052418084589" width="244.43135999999998"><g><svg viewBox="0 0 244.43136 87.2205241808459" height="87.2205241808459" width="244.43136"><g id="SvgjsG7579"><svg viewBox="0 0 244.43136 87.2205241808459" height="87.2205241808459" width="244.43136" id="SvgjsSvg7578"><g><svg viewBox="0 0 244.43136 87.2205241808459" height="87.2205241808459" width="244.43136"><g transform="matrix(1,0,0,1,0,0)"><svg width="244.43136" viewBox="3.7 -35.8 102.85 36.699999999999996" height="87.2205241808459" data-palette-color="url(#0a162d44-a86d-471b-8482-b6baab2a381e)"><path d="M18.75 0.9Q11.5 0.9 7.58-2.53 3.65-5.95 3.7-12.8L3.7-12.8 11.85-12.8Q11.8-9.95 13.55-8.45 15.3-6.95 18.45-6.95L18.45-6.95Q21.05-6.95 22.55-7.8 24.05-8.65 24.05-10.4L24.05-10.4Q24.05-11.85 22.53-12.5 21-13.15 19.5-13.43 18-13.7 17.65-13.75L17.65-13.75Q13.8-14.5 11-15.58 8.2-16.65 6.3-18.85 4.4-21.05 4.4-24.65L4.4-24.65Q4.4-28.25 6.3-30.78 8.2-33.3 11.38-34.55 14.55-35.8 18.3-35.8L18.3-35.8Q22.85-35.8 26.18-34.1 29.5-32.4 31.4-28.95L31.4-28.95Q32.35-27.3 32.55-25.78 32.75-24.25 32.75-22.8L32.75-22.8 24.6-22.8Q24.6-25.5 23.15-26.78 21.7-28.05 18.65-28.05L18.65-28.05Q16.2-28.05 14.85-27.2 13.5-26.35 13.5-24.9L13.5-24.9Q13.5-23.3 15.3-22.55 17.1-21.8 19.85-21.2L19.85-21.2Q24.35-20.3 26.88-19.48 29.4-18.65 31.25-16.55 33.1-14.45 33.1-10.65L33.1-10.65Q33.1-7.05 31.1-4.45 29.1-1.85 25.83-0.48 22.55 0.9 18.75 0.9L18.75 0.9ZM41.45-0.05L41.45-34.85 43.45-34.85 55.6-13.35 67.7-34.85 69.55-34.85 69.55-0.05 41.45-0.05ZM43.3-31.4L43.3-1.85 67.7-1.85 67.7-31.1 56.45-11.3 54.7-11.3 43.3-31.4ZM78.45-0.05L78.45-34.85 80.45-34.85 92.59-13.35 104.7-34.85 106.55-34.85 106.55-0.05 78.45-0.05ZM80.3-31.4L80.3-1.85 104.7-1.85 104.7-31.1 93.45-11.3 91.7-11.3 80.3-31.4Z" opacity="1" transform="matrix(1,0,0,1,0,0)" fill="white" class="wordmark-text-0" id="SvgjsPath7577"></path></svg></g></svg></g></svg></g></svg></g></svg></g></svg></g></svg></g><path d="M177.752 73.99L177.752 20.177 384.598 20.177 384.598 227.023 177.752 227.023 177.752 173.21 185.617 173.21 185.617 219.158 376.733 219.158 376.733 28.042 185.617 28.042 185.617 73.99Z" fill="black" stroke="transparent"></path></svg></g><defs><mask></mask></defs></svg><rect width="395.52" height="247.2" fill="black" stroke="none" visibility="hidden"></rect></g></mask><linearGradient x1="0" x2="1" y1="0.578" y2="0.595" id="0a162d44-a86d-471b-8482-b6baab2a381e"><stop stop-color="#6ee2f5" offset="0"></stop><stop stop-color="#6454f0" offset="1"></stop></linearGradient><rect width="395.52" height="247.2" fill="url(#0a162d44-a86d-471b-8482-b6baab2a381e)" mask="url(#e406f9a6-1cd2-4476-8c31-9cfa001fe386)" data-fill-palette-color="primary"></rect><mask id="c642f96b-13b9-4473-9882-598643feb1df"><g id="SvgjsG7603"><svg viewBox="0 0 395.52 247.2" height="247.2" width="395.52"><g><svg></svg></g><g><svg viewBox="0 0 395.52 247.2" height="247.2" width="395.52"><g transform="matrix(1,0,0,1,75.54432,79.98973790957706)"><svg viewBox="0 0 244.43135999999998 87.22052418084589" height="87.22052418084589" width="244.43135999999998"><g><svg viewBox="0 0 244.43135999999998 87.22052418084589" height="87.22052418084589" width="244.43135999999998"><g><svg viewBox="0 0 244.43136 87.2205241808459" height="87.22052418084589" width="244.43135999999998"><g><svg viewBox="0 0 244.43136 87.2205241808459" height="87.2205241808459" width="244.43136"><g id="SvgjsG7602"><svg viewBox="0 0 244.43136 87.2205241808459" height="87.2205241808459" width="244.43136" id="SvgjsSvg7601"><g><svg viewBox="0 0 244.43136 87.2205241808459" height="87.2205241808459" width="244.43136"><g transform="matrix(1,0,0,1,0,0)"><svg width="244.43136" viewBox="3.7 -35.8 102.85 36.699999999999996" height="87.2205241808459" data-palette-color="url(#0a162d44-a86d-471b-8482-b6baab2a381e)"></svg></g></svg></g></svg></g></svg></g></svg></g></svg></g></svg></g><path d="M177.752 73.99L177.752 20.177 384.598 20.177 384.598 227.023 177.752 227.023 177.752 173.21 185.617 173.21 185.617 219.158 376.733 219.158 376.733 28.042 185.617 28.042 185.617 73.99Z" fill="white" stroke="transparent"></path></svg></g><defs><mask></mask></defs><mask><g id="SvgjsG7600"><svg viewBox="0 0 395.52 247.2" height="247.2" width="395.52"><g><svg></svg></g><g><svg viewBox="0 0 395.52 247.2" height="247.2" width="395.52"><g transform="matrix(1,0,0,1,75.54432,79.98973790957706)"><svg viewBox="0 0 244.43135999999998 87.22052418084589" height="87.22052418084589" width="244.43135999999998"><g><svg viewBox="0 0 244.43135999999998 87.22052418084589" height="87.22052418084589" width="244.43135999999998"><g><svg viewBox="0 0 244.43136 87.2205241808459" height="87.22052418084589" width="244.43135999999998"><g><svg viewBox="0 0 244.43136 87.2205241808459" height="87.2205241808459" width="244.43136"><g id="SvgjsG7599"><svg viewBox="0 0 244.43136 87.2205241808459" height="87.2205241808459" width="244.43136" id="SvgjsSvg7598"><g><svg viewBox="0 0 244.43136 87.2205241808459" height="87.2205241808459" width="244.43136"><g transform="matrix(1,0,0,1,0,0)"><svg width="244.43136" viewBox="3.7 -35.8 102.85 36.699999999999996" height="87.2205241808459" data-palette-color="url(#0a162d44-a86d-471b-8482-b6baab2a381e)"><path d="M18.75 0.9Q11.5 0.9 7.58-2.53 3.65-5.95 3.7-12.8L3.7-12.8 11.85-12.8Q11.8-9.95 13.55-8.45 15.3-6.95 18.45-6.95L18.45-6.95Q21.05-6.95 22.55-7.8 24.05-8.65 24.05-10.4L24.05-10.4Q24.05-11.85 22.53-12.5 21-13.15 19.5-13.43 18-13.7 17.65-13.75L17.65-13.75Q13.8-14.5 11-15.58 8.2-16.65 6.3-18.85 4.4-21.05 4.4-24.65L4.4-24.65Q4.4-28.25 6.3-30.78 8.2-33.3 11.38-34.55 14.55-35.8 18.3-35.8L18.3-35.8Q22.85-35.8 26.18-34.1 29.5-32.4 31.4-28.95L31.4-28.95Q32.35-27.3 32.55-25.78 32.75-24.25 32.75-22.8L32.75-22.8 24.6-22.8Q24.6-25.5 23.15-26.78 21.7-28.05 18.65-28.05L18.65-28.05Q16.2-28.05 14.85-27.2 13.5-26.35 13.5-24.9L13.5-24.9Q13.5-23.3 15.3-22.55 17.1-21.8 19.85-21.2L19.85-21.2Q24.35-20.3 26.88-19.48 29.4-18.65 31.25-16.55 33.1-14.45 33.1-10.65L33.1-10.65Q33.1-7.05 31.1-4.45 29.1-1.85 25.83-0.48 22.55 0.9 18.75 0.9L18.75 0.9ZM41.45-0.05L41.45-34.85 43.45-34.85 55.6-13.35 67.7-34.85 69.55-34.85 69.55-0.05 41.45-0.05ZM43.3-31.4L43.3-1.85 67.7-1.85 67.7-31.1 56.45-11.3 54.7-11.3 43.3-31.4ZM78.45-0.05L78.45-34.85 80.45-34.85 92.59-13.35 104.7-34.85 106.55-34.85 106.55-0.05 78.45-0.05ZM80.3-31.4L80.3-1.85 104.7-1.85 104.7-31.1 93.45-11.3 91.7-11.3 80.3-31.4Z" opacity="1" transform="matrix(1,0,0,1,0,0)" fill="black" class="wordmark-text-0" id="SvgjsPath7597"></path></svg></g></svg></g></svg></g></svg></g></svg></g></svg></g></svg></g><path d="M177.752 73.99L177.752 20.177 384.598 20.177 384.598 227.023 177.752 227.023 177.752 173.21 185.617 173.21 185.617 219.158 376.733 219.158 376.733 28.042 185.617 28.042 185.617 73.99Z" fill="black" stroke="transparent"></path></svg></g><defs><mask></mask></defs></svg><rect width="395.52" height="247.2" fill="black" stroke="none" visibility="hidden"></rect></g></mask></svg><rect width="395.52" height="247.2" fill="black" stroke="none" visibility="hidden"></rect></g></mask><linearGradient x1="0" x2="1" y1="0.578" y2="0.595" id="a714d2c2-14bc-4c12-a48f-4ef460461ecc"><stop stop-color="#6ee2f5" offset="0"></stop><stop stop-color="#6454f0" offset="1"></stop></linearGradient></svg><rect width="395.52" height="247.2" fill="none" stroke="none" visibility="hidden"></rect></g></svg></g></svg>