<svg xmlns="http://www.w3.org/2000/svg" version="1.1" xmlns:xlink="http://www.w3.org/1999/xlink" xmlns:svgjs="http://svgjs.dev/svgjs" width="2000" height="1247" viewBox="0 0 2000 1247"><g transform="matrix(1,0,0,1,-1.2121212121212466,0.504858299595071)"><svg viewBox="0 0 396 247" data-background-color="#ffffff" preserveAspectRatio="xMidYMid meet" height="1247" width="2000" xmlns="http://www.w3.org/2000/svg" xmlns:xlink="http://www.w3.org/1999/xlink"><g id="tight-bounds" transform="matrix(1,0,0,1,0.2400000000000091,-0.09999999999999432)"><svg viewBox="0 0 395.52 247.2" height="247.2" width="395.52"><g><svg></svg></g><g><svg viewBox="0 0 395.52 247.2" height="247.2" width="395.52"><g transform="matrix(1,0,0,1,75.54432,91.63719311768754)"><svg viewBox="0 0 244.43135999999998 63.925613764624906" height="63.925613764624906" width="244.43135999999998"><g><svg viewBox="0 0 244.43135999999998 63.925613764624906" height="63.925613764624906" width="244.43135999999998"><g><svg viewBox="0 0 244.43135999999998 63.925613764624906" height="63.925613764624906" width="244.43135999999998"><g id="textblocktransform"><svg viewBox="0 0 244.43135999999998 63.925613764624906" height="63.925613764624906" width="244.43135999999998" id="textblock"><g><svg viewBox="0 0 244.43135999999998 63.925613764624906" height="63.925613764624906" width="244.43135999999998"><g transform="matrix(1,0,0,1,0,0)"><svg width="244.43135999999998" viewBox="3.6 -37.5 145.29 38" height="63.925613764624906" data-palette-color="#000000"><path d="M13.45 0.5L13.45 0.5Q11.3 0.5 9.83-0.33 8.35-1.15 7.48-2.33 6.6-3.5 6.15-4.7 5.7-5.9 5.6-6.65L5.6-6.65 5.2-6.65 5.2 0 3.6 0 3.6-14.75 6.2-14.75 6.2-12.8Q6.2-11.95 6.33-10.5 6.45-9.05 6.83-7.45 7.2-5.85 7.95-4.42 8.7-3 10-2.1 11.3-1.2 13.3-1.2L13.3-1.2Q15.7-1.2 17.2-2.68 18.7-4.15 18.7-6.8L18.7-6.8Q18.7-9.1 17.68-11.05 16.65-13 15-14.78 13.35-16.55 11.53-18.28 9.7-20 8.05-21.78 6.4-23.55 5.38-25.58 4.35-27.6 4.35-29.95L4.35-29.95Q4.35-32.3 5.4-33.98 6.45-35.65 8.18-36.58 9.9-37.5 12-37.5L12-37.5Q14.35-37.5 15.8-36.5 17.25-35.5 18.05-34.2 18.85-32.9 19.15-31.95L19.15-31.95 19.55-31.95 19.55-37 21.15-37 21.15-24.6 18.55-24.6 18.55-26.2Q18.55-28.9 17.78-31.1 17-33.3 15.58-34.58 14.15-35.85 12.1-35.85L12.1-35.85Q10.05-35.85 8.88-34.5 7.7-33.15 7.7-31.1L7.7-31.1Q7.7-29.1 8.72-27.28 9.75-25.45 11.4-23.73 13.05-22 14.88-20.25 16.7-18.5 18.35-16.63 20-14.75 21.03-12.63 22.05-10.5 22.05-8L22.05-8Q22.05-5.4 20.88-3.5 19.7-1.6 17.75-0.55 15.8 0.5 13.45 0.5ZM46.1 0L28.7 0 28.7-1.6 35.65-1.6 35.65-35.25 32.7-35.25Q29-35.25 28.55-31.65L28.55-31.65 27.85-26.3 26.45-26.3 26.45-37.5 27.35-37.5 28.85-37 45.95-37 47.45-37.5 48.35-37.5 48.35-26.3 46.95-26.3 46.25-31.65Q45.8-35.25 42.1-35.25L42.1-35.25 39.15-35.25 39.15-1.6 46.1-1.6 46.1 0ZM72.59 0L51.55 0 51.55-1.7 55.75-1.7 55.75-35.3 51.55-35.3 51.55-37 72.09-37 72.09-26.3 70.7-26.3 70-31.65Q69.55-35.25 65.84-35.25L65.84-35.25 59.25-35.25 59.25-21.05 65.7-21.05 65.7-27.4 67.3-27.4 67.3-13 65.7-13 65.7-19.35 59.25-19.35 59.25-1.75 66.34-1.75Q70-1.75 70.45-5.4L70.45-5.4 71.2-11.7 72.59-11.7 72.59 0ZM88.29 0L86.29 0 77.64-35.3 74.44-35.3 74.44-37 86.24-37 86.24-35.3 81.19-35.3 88.14-6.4 95.19-35.3 91.69-35.3 91.69-37 99.59-37 99.59-35.3 96.94-35.3 88.29 0ZM122.59 0L101.54 0 101.54-1.7 105.74-1.7 105.74-35.3 101.54-35.3 101.54-37 122.09-37 122.09-26.3 120.69-26.3 119.99-31.65Q119.54-35.25 115.84-35.25L115.84-35.25 109.24-35.25 109.24-21.05 115.69-21.05 115.69-27.4 117.29-27.4 117.29-13 115.69-13 115.69-19.35 109.24-19.35 109.24-1.75 116.34-1.75Q119.99-1.75 120.44-5.4L120.44-5.4 121.19-11.7 122.59-11.7 122.59 0ZM145.69 0.5L144.49 0.5 131.74-29.3 131.74-1.7 135.94-1.7 135.94 0 126.84 0 126.84-1.7 130.04-1.7 130.04-35.3 126.84-35.3 126.84-37 131.94-37 143.99-8.8 143.99-35.3 139.79-35.3 139.79-37 148.89-37 148.89-35.3 145.69-35.3 145.69 0.5Z" opacity="1" transform="matrix(1,0,0,1,0,0)" fill="#000000" class="wordmark-text-0" data-fill-palette-color="primary" id="text-0"></path></svg></g></svg></g></svg></g></svg></g></svg></g></svg></g><path d="M201.422 85.637L201.422 27.623 9.468 27.623 9.468 219.577 201.422 219.577 201.422 161.563 195.657 161.563 195.657 213.812 15.232 213.812 15.232 33.388 195.657 33.388 195.657 85.637Z" fill="#000000" stroke="transparent" data-fill-palette-color="tertiary"></path></svg></g><defs></defs></svg><rect width="395.52" height="247.2" fill="none" stroke="none" visibility="hidden"></rect></g></svg></g></svg>